<?xml version="1.0" encoding="UTF-8"?>
<svg width="220px" height="80px" viewBox="0 0 220 80" version="1.1" xmlns="http://www.w3.org/2000/svg" xmlns:xlink="http://www.w3.org/1999/xlink">
    <!-- Generator: Sketch 54.1 (76490) - https://sketchapp.com -->
    <title>Badges/pocketcasts_large_dark</title>
    <desc>Created with Sketch.</desc>
    <g id="Badges/pocketcasts_large_dark" stroke="none" stroke-width="1" fill="none" fill-rule="evenodd">
        <path d="M12.819426,-5.17920154e-16 L207.180574,5.17920154e-16 C211.638168,-3.00926524e-16 213.254599,0.464128056 214.884229,1.33566352 C216.513858,2.20719898 217.792801,3.48614185 218.664336,5.11577148 C219.535872,6.74540111 220,8.3618323 220,12.819426 L220,67.180574 C220,71.6381677 219.535872,73.2545989 218.664336,74.8842285 C217.792801,76.5138581 216.513858,77.792801 214.884229,78.6643365 C213.254599,79.5358719 211.638168,80 207.180574,80 L12.819426,80 C8.3618323,80 6.74540111,79.5358719 5.11577148,78.6643365 C3.48614185,77.792801 2.20719898,76.5138581 1.33566352,74.8842285 C0.464128056,73.2545989 2.00617683e-16,71.6381677 -3.45280103e-16,67.180574 L3.45280103e-16,12.819426 C-2.00617683e-16,8.3618323 0.464128056,6.74540111 1.33566352,5.11577148 C2.20719898,3.48614185 3.48614185,2.20719898 5.11577148,1.33566352 C6.74540111,0.464128056 8.3618323,3.00926524e-16 12.819426,-5.17920154e-16 Z" id="Rectangle-4" fill="#000000"></path>
        <path d="M76.266,29 L70.232,29 L70.232,19.2 L71.646,19.2 L71.646,27.726 L76.266,27.726 L76.266,29 Z M78.936,20.278 L77.508,20.278 L77.508,19.032 L78.936,19.032 L78.936,20.278 Z M78.88,29 L77.55,29 L77.55,21.748 L78.88,21.748 L78.88,29 Z M85.876,27.012 C85.876,28.384 84.798,29.14 83.174,29.14 C82.124,29.14 81.074,28.86 80.248,28.412 L80.626,27.306 C81.382,27.726 82.306,28.02 83.188,28.02 C84.07,28.02 84.588,27.642 84.588,27.068 C84.588,26.564 84.28,26.27 82.964,25.878 C81.326,25.416 80.57,24.898 80.57,23.68 C80.57,22.448 81.55,21.622 83.132,21.622 C84.028,21.622 84.854,21.832 85.596,22.196 L85.218,23.302 C84.574,22.966 83.818,22.728 83.09,22.728 C82.32,22.728 81.872,23.106 81.872,23.596 C81.872,24.128 82.236,24.38 83.468,24.758 C85.316,25.304 85.876,25.878 85.876,27.012 Z M89.904,29.112 C88.476,29.112 87.678,28.44 87.678,26.9 L87.678,22.868 L86.558,22.868 L86.558,21.748 L87.678,21.748 L87.678,19.662 L89.008,19.662 L89.008,21.748 L91.164,21.748 L91.164,22.868 L89.008,22.868 L89.008,26.704 C89.008,27.558 89.47,27.964 90.226,27.964 C90.548,27.964 90.842,27.922 91.164,27.824 L91.164,28.93 C90.814,29.042 90.394,29.112 89.904,29.112 Z M95.402,29.14 C93.47,29.14 92.056,27.88 92.056,25.402 C92.056,23.106 93.358,21.58 95.15,21.58 C97.026,21.58 98.188,23.134 98.188,25.444 L98.188,25.934 L93.372,25.934 C93.484,27.194 94.254,28.034 95.458,28.034 C96.13,28.034 96.858,27.81 97.516,27.432 L97.908,28.44 C97.138,28.888 96.256,29.14 95.402,29.14 Z M93.358,24.87 L96.886,24.87 C96.788,23.568 96.158,22.672 95.136,22.672 C94.128,22.672 93.456,23.582 93.358,24.87 Z M100.928,23.456 L100.928,29 L99.584,29 L99.584,21.748 L100.62,21.748 L100.844,22.462 C101.488,22 102.216,21.622 103.168,21.622 C104.624,21.622 105.422,22.462 105.422,24.058 L105.422,29 L104.092,29 L104.092,24.352 C104.092,23.344 103.602,22.812 102.692,22.812 C102.062,22.812 101.404,23.106 100.928,23.456 Z M115.592,25.36 C115.592,27.684 114.206,29.168 112.372,29.168 C110.552,29.168 109.18,27.698 109.18,25.388 C109.18,23.064 110.566,21.58 112.386,21.58 C114.22,21.58 115.592,23.05 115.592,25.36 Z M114.248,25.374 C114.248,23.778 113.478,22.7 112.372,22.7 C111.28,22.7 110.51,23.764 110.51,25.374 C110.51,26.97 111.28,28.048 112.386,28.048 C113.478,28.048 114.248,26.984 114.248,25.374 Z M118.388,23.456 L118.388,29 L117.044,29 L117.044,21.748 L118.08,21.748 L118.304,22.462 C118.948,22 119.676,21.622 120.628,21.622 C122.084,21.622 122.882,22.462 122.882,24.058 L122.882,29 L121.552,29 L121.552,24.352 C121.552,23.344 121.062,22.812 120.152,22.812 C119.522,22.812 118.864,23.106 118.388,23.456 Z" id="Listenon" fill="#FFFFFF" fill-rule="nonzero" opacity="0.5"></path>
        <g id="Pocket-Casts-Roundel---Red" transform="translate(10.000000, 16.000000)">
            <g id="Group">
                <path d="M48,24 C48,37.2551111 37.2551111,48 24,48 C10.7448889,48 0,37.2551111 0,24 C0,10.7448889 10.7448889,0 24,0 C37.2551111,0 48,10.7448889 48,24" id="Fill-23" fill="#F43E37"></path>
                <g id="Glyph---White" transform="translate(5.333333, 5.333333)" fill="#FFFFFF">
                    <path d="M0,18.5 C0,8.28273213 8.28273213,0 18.5,0 C28.7172679,0 37,8.28273213 37,18.5 L32.375,18.5 C32.375,10.8370491 26.1629509,4.625 18.5,4.625 C10.8370491,4.625 4.625,10.8370491 4.625,18.5 C4.625,26.1629509 10.8370491,32.375 18.5,32.375 L18.5,37 C8.28273213,37 0,28.7172679 0,18.5 Z M18.5,29.6 C12.3696393,29.6 7.4,24.6303607 7.4,18.5 C7.4,12.3696393 12.3696393,7.4 18.5,7.4 C24.6303607,7.4 29.6,12.3696393 29.6,18.5 L25.5636364,18.5 C25.5636364,14.5988614 22.4011386,11.4363636 18.5,11.4363636 C14.5988614,11.4363636 11.4363636,14.5988614 11.4363636,18.5 C11.4363636,22.4011386 14.5988614,25.5636364 18.5,25.5636364 L18.5,29.6 Z" id="Path"></path>
                </g>
            </g>
        </g>
        <g id="Group-30" transform="translate(69.000000, 36.000000)" fill="#FFFFFF">
            <path d="M5.67023663,11.8960875 C7.8089099,11.8960875 8.87824653,10.7404 8.87824653,8.286025 C8.87824653,5.7732125 7.8089099,4.8203375 5.72803861,4.8203375 L4.68691485,4.8203375 L4.68691485,11.8960875 L5.67023663,11.8960875 Z M0.236162376,21.3395875 L0.236162376,1.12365 L5.72803861,1.12365 C10.670796,1.12365 13.3303752,3.462525 13.3303752,8.14165 C13.3303752,13.3687125 10.1794792,15.535025 5.84364257,15.535025 L4.71581584,15.535025 L4.71581584,21.3395875 L0.236162376,21.3395875 Z" id="Fill-1"></path>
            <path d="M20.0051965,9.61406875 C18.7039639,9.61406875 17.8954243,11.0007562 17.8954243,13.8311937 C17.8954243,16.6898187 18.7328649,18.1053812 20.0629985,18.1053812 C21.3635431,18.1053812 22.2016718,16.6898187 22.2016718,13.8600687 C22.2016718,11.0007562 21.3346421,9.61406875 20.0051965,9.61406875 M20.0340975,21.6288187 C16.6230926,21.6288187 13.9057114,18.9998187 13.9057114,13.8889437 C13.9057114,8.71894375 16.6519936,6.06175625 20.0629985,6.06175625 C23.4451025,6.06175625 26.1906965,8.71894375 26.1906965,13.8311937 C26.1906965,18.9709437 23.4451025,21.6288187 20.0340975,21.6288187" id="Fill-3"></path>
            <path d="M33.7904183,21.5707938 C29.7724926,21.5707938 27.4019233,18.7692313 27.4019233,13.8886688 C27.4019233,9.12360625 29.8302946,6.11991875 34.0216262,6.11991875 C35.3517599,6.11991875 36.3626064,6.37979375 37.3459282,6.75516875 L36.7094183,10.3941063 C36.0157946,10.0764813 35.207255,9.81660625 34.3684381,9.81660625 C32.4313837,9.81660625 31.4205371,11.4913563 31.4205371,13.8309188 C31.4205371,16.3719188 32.4313837,17.8741063 34.4262401,17.8741063 C35.178354,17.8741063 35.9579926,17.6431063 36.7961213,17.3254813 L37.4326312,20.8193563 C36.4204084,21.2531688 35.091651,21.5707938 33.7904183,21.5707938" id="Fill-5"></path>
            <polygon id="Fill-7" points="43.2688421 14.1774188 43.2688421 21.3397938 39.0775104 21.3397938 39.0775104 0.51679375 43.2688421 0.51679375 43.2688421 12.8484813 46.679847 6.37979375 51.2757926 6.37979375 47.2000649 13.5421688 51.3913965 21.3397938 46.737649 21.3397938"></polygon>
            <path d="M58.9335916,12.8487562 C58.8468886,10.5965062 58.1814777,9.26756875 56.9105223,9.26756875 C55.6092896,9.26756875 54.9445668,10.6542562 54.8571757,12.8487562 L58.9335916,12.8487562 Z M50.954854,13.9178187 C50.954854,8.77669375 53.5862203,6.06175625 56.9105223,6.06175625 C60.4364431,6.06175625 62.8070124,8.74781875 62.8070124,14.0044437 L62.8070124,15.3615687 L54.8571757,15.3615687 C55.0023688,17.4123812 56.1295074,18.4223187 57.9791708,18.4223187 C59.0780965,18.4223187 60.3786411,18.0765062 61.5635817,17.5278812 L62.3156955,20.4731312 C60.8699579,21.1956937 59.1647995,21.5710687 57.5456559,21.5710687 C53.8745421,21.5710687 50.954854,19.6357562 50.954854,13.9178187 L50.954854,13.9178187 Z" id="Fill-9"></path>
            <path d="M65.2032485,16.863 L65.2032485,9.8168125 L63.584105,9.8168125 L63.584105,6.38 L65.2032485,6.38 L65.2032485,2.4523125 L69.3656792,2.4523125 L69.3656792,6.38 L72.5454762,6.38 L72.5454762,9.8168125 L69.3656792,9.8168125 L69.3656792,16.256625 C69.3656792,17.4989375 70.0310901,18.0186875 71.1575406,18.0186875 C71.6495455,18.0186875 72.0830604,17.9320625 72.5454762,17.8165625 L72.5454762,21.2245 C71.9096545,21.426625 71.0130356,21.542125 69.9732881,21.542125 C66.7934911,21.542125 65.2032485,20.2420625 65.2032485,16.863" id="Fill-11"></path>
            <path d="M86.7647634,21.5707938 C81.5034069,21.5707938 78.2080059,18.2206063 78.2080059,11.2603563 C78.2080059,4.56066875 81.5901099,0.89285625 86.7936644,0.89285625 C88.5284119,0.89285625 89.9734614,1.23935625 91.1006,1.67248125 L90.4069762,5.77273125 C89.5110455,5.39804375 88.4706099,5.05154375 87.2271792,5.05154375 C84.4526842,5.05154375 82.8046396,7.24604375 82.8046396,11.2026063 C82.8046396,15.2746688 84.3659812,17.4121063 87.3138822,17.4121063 C88.4417089,17.4121063 89.5110455,17.1226688 90.4358772,16.7184188 L91.158402,20.7038563 C89.9156594,21.2242938 88.3839069,21.5707938 86.7647634,21.5707938" id="Fill-13"></path>
            <path d="M99.5668698,18.1627875 L99.5668698,14.610475 C99.1622559,14.52385 98.6998401,14.494975 98.2085233,14.494975 C97.3414936,14.494975 96.8501767,14.668225 96.5033649,14.98585 C96.185454,15.3330375 96.0113599,15.8527875 96.0113599,16.60285 C96.0113599,18.1050375 96.6767708,18.7114125 97.8321223,18.7114125 C98.4108302,18.7114125 99.017751,18.4804125 99.5668698,18.1627875 M96.098751,21.54185 C93.7570827,21.54185 92.1090381,20.0396625 92.1090381,16.804975 C92.1090381,15.3619125 92.5143401,14.148475 93.2946668,13.3970375 C94.1327955,12.531475 95.3755381,12.09835 97.2547906,12.09835 C98.0640183,12.09835 98.873246,12.21385 99.5668698,12.358225 L99.5668698,11.5201625 C99.5668698,10.2496625 98.98885,9.555975 97.4281965,9.555975 C96.214355,9.555975 94.9131223,9.9031625 93.7570827,10.3940375 L92.9767559,7.2171 C94.4796074,6.610725 96.2432559,6.148725 98.1796223,6.148725 C101.96634,6.148725 103.672187,7.765725 103.672187,11.2025375 L103.672187,18.6825375 L103.990098,21.339725 L100.347885,21.339725 L99.8276668,20.0396625 C98.7287411,20.993225 97.6594045,21.54185 96.098751,21.54185" id="Fill-15"></path>
            <path d="M110.779697,21.5996 C108.756628,21.5996 106.877375,21.07985 105.25892,20.2129125 L106.097049,16.83385 C107.687291,17.7007875 109.276157,18.2205375 110.721895,18.2205375 C111.79192,18.2205375 112.36994,17.7585375 112.36994,17.1226 C112.36994,16.48735 112.023128,16.1992875 109.99937,15.3907875 C107.195286,14.263975 105.808039,13.1949125 105.808039,10.6827875 C105.808039,7.9101 107.716192,6.11985 111.068707,6.11985 C112.773865,6.11985 114.335207,6.5241 115.752044,7.2171 L114.913227,10.5961625 C113.612682,9.9320375 112.283237,9.498225 111.068707,9.498225 C110.172776,9.498225 109.681459,9.8742875 109.681459,10.4806625 C109.681459,11.0581625 109.99937,11.3469125 111.994227,12.1561 C115.145123,13.3970375 116.242672,14.552725 116.242672,16.920475 C116.242672,20.0396625 114.046197,21.5996 110.779697,21.5996" id="Fill-17"></path>
            <path d="M118.784514,16.863 L118.784514,9.8168125 L117.165371,9.8168125 L117.165371,6.38 L118.784514,6.38 L118.784514,2.4523125 L122.946945,2.4523125 L122.946945,6.38 L126.126742,6.38 L126.126742,9.8168125 L122.946945,9.8168125 L122.946945,16.256625 C122.946945,17.4989375 123.612356,18.0186875 124.738806,18.0186875 C125.230811,18.0186875 125.664326,17.9320625 126.126742,17.8165625 L126.126742,21.2245 C125.49092,21.426625 124.594301,21.542125 123.554554,21.542125 C120.374757,21.542125 118.784514,20.2420625 118.784514,16.863" id="Fill-19"></path>
            <path d="M133.062292,21.5996 C131.039222,21.5996 129.15997,21.07985 127.541514,20.2129125 L128.379643,16.83385 C129.969886,17.7007875 131.558752,18.2205375 133.00449,18.2205375 C134.074514,18.2205375 134.652534,17.7585375 134.652534,17.1226 C134.652534,16.48735 134.305722,16.1992875 132.281965,15.3907875 C129.477881,14.263975 128.090633,13.1949125 128.090633,10.6827875 C128.090633,7.9101 129.998787,6.11985 133.351301,6.11985 C135.05646,6.11985 136.617801,6.5241 138.034638,7.2171 L137.195821,10.5961625 C135.895277,9.9320375 134.565831,9.498225 133.351301,9.498225 C132.455371,9.498225 131.964054,9.8742875 131.964054,10.4806625 C131.964054,11.0581625 132.281965,11.3469125 134.276821,12.1561 C137.427717,13.3970375 138.525267,14.552725 138.525267,16.920475 C138.525267,20.0396625 136.328792,21.5996 133.062292,21.5996" id="Fill-21"></path>
        </g>
    </g>
</svg>